<?xml version="1.0"?>
<svg xmlns="http://www.w3.org/2000/svg" xmlns:xlink="http://www.w3.org/1999/xlink" version="1.1" id="Capa_1" x="0px" y="0px" width="512px" height="512px" viewBox="0 0 42.904 42.904" style="enable-background:new 0 0 42.904 42.904;" xml:space="preserve" class=""><g transform="matrix(1 2.44929e-16 -2.44929e-16 1 7.10543e-15 -7.10543e-15)"><g>
	<g>
		<path d="M31.013,6.646c-2.799-1.514-5.224-3.314-7.6-5.381c-0.417-0.362-0.771-0.716-0.829-0.754    c-0.03-0.019-0.067-0.037-0.114-0.053c-0.387-0.128-0.772-0.255-1.157-0.382c-0.5-0.165-1.148-0.062-1.544,0.308    c-2.023,1.881-3.484,3.877-5.865,5.417c-1.676,1.084-3.537,1.759-5.107,3.033C4.06,12.676,1.399,17.681,1.15,23.808    c-0.323,7.945,4.842,14.139,11.558,17.12c0.505,0.224,0.907,0.398,0.89,0.416c-0.018,0.017,0.378,0.209,0.896,0.402    c0.098,0.037,0.196,0.071,0.295,0.106c0.522,0.186,0.975,0.283,1.004,0.252c0.029-0.031,0.483,0.065,1.022,0.19    c0.266,0.062,0.531,0.118,0.799,0.17c0.542,0.104,0.963,0.193,0.933,0.224c-0.03,0.029,0.389,0.12,0.938,0.171    c0.021,0.002,0.041,0.004,0.062,0.006c0.55,0.051,1.017,0.046,1.041,0.02c0.024-0.026,0.139-0.04,0.255-0.033    c0.07,0.005,0.141,0.009,0.211,0.011c0.762,0.025,1.516,0.001,2.261-0.063c0.552-0.049,0.981-0.101,0.967-0.084    c-0.017,0.015,0.114,0.008,0.292-0.018c0.176-0.023,0.332-0.063,0.351-0.083c0.02-0.019,0.476-0.106,1.014-0.229    c7.357-1.661,13.427-7.515,15.345-14.907c1.43-5.507-0.424-11.248-3.75-15.653C35.832,9.58,33.453,7.966,31.013,6.646z     M13.515,7.289c0.207-0.114,0.223-0.114,0.031-0.008c-0.222,0.124-0.351,0.19-0.351,0.19c-0.01,0.004-0.018,0.009-0.027,0.014    C13.154,7.494,13.309,7.403,13.515,7.289z M5.506,14.483c1.474-2.388,3.57-4.344,5.938-5.931c0.459-0.308,0.526-0.226,0.138,0.167    c-1.959,1.97-3.913,3.944-5.868,5.92C5.324,15.033,5.216,14.954,5.506,14.483z M7.532,35.251    c-0.247-0.293-0.104-0.846,0.303-1.218c0.046-0.044,0.092-0.086,0.139-0.129c0.406-0.373,0.997-0.474,1.356-0.285    c0.358,0.188,0.344,0.596-0.062,0.971c-0.183,0.169-0.364,0.338-0.547,0.506C8.316,35.471,7.779,35.544,7.532,35.251z     M29.035,38.783c-0.176,0.08-0.367,0.145-0.561,0.206c0.018-0.007,0.034-0.015,0.037-0.018c0.019-0.019-0.087-0.042-0.233-0.055    c-0.147-0.013-0.335,0.042-0.419,0.129c-0.064,0.065-0.017,0.1,0.104,0.088c-0.521,0.122-1.075,0.196-1.636,0.224    c-0.552,0.027-0.553-0.029-0.008-0.123c0.893-0.151,1.77-0.382,2.611-0.654C29.458,38.408,29.536,38.551,29.035,38.783z     M39.17,28.965c-1.168,3.674-3.643,6.815-6.829,9.053c-0.452,0.317-0.796,0.523-0.749,0.489c0.029-0.021,0.059-0.043,0.082-0.067    c0.104-0.104,0.16-0.191,0.183-0.268c0.934-2.505-3.955-0.17-4.565-0.05c-0.435,0.085-0.872,0.143-1.312,0.177    c-0.55,0.042-0.945-0.021-0.881-0.089c0.065-0.067-0.076-0.213-0.309-0.339c-0.263-0.143-0.408-0.241-0.414-0.244    c-0.223-0.161-0.535-0.111-0.697,0.112c-0.053,0.073-0.081,0.156-0.088,0.239c-0.012,0.144-0.398,0.195-0.936,0.061    c-0.743-0.19-1.464-0.473-2.145-0.864c-0.791-0.457-1.732-0.293-2.41,0.312c-1.887,1.684,4.758,2.877,5.312,2.936    c1.315,0.138,3.107,0.079,4.768-0.303c0.538-0.124,0.557-0.076,0.042,0.127c-2.018,0.8-4.179,1.273-6.382,1.365    c-0.552,0.022-1.217-0.044-1.484-0.116c-0.268-0.073-0.532-0.096-0.594-0.033c-0.06,0.062-0.49,0.086-0.958,0.032    c-0.281-0.032-0.563-0.071-0.843-0.119c-0.209-0.035-0.412-0.08-0.614-0.129c-0.337-0.08-0.451-0.317-0.259-0.523    c0.193-0.206-0.053-0.568-0.535-0.836c-0.015-0.008-0.028-0.016-0.042-0.023c-0.483-0.269-1.103-0.272-1.404,0.02    c-0.303,0.293-0.966,0.369-1.466,0.134c-0.352-0.164-0.695-0.341-1.031-0.528c-0.482-0.269-0.543-0.826-0.153-1.219    c0.017-0.017,0.034-0.034,0.051-0.051c0.39-0.392,0.537-0.854,0.331-1.038c-0.206-0.183-0.695-0.037-1.103,0.336    c-0.062,0.056-0.122,0.111-0.183,0.166c-0.408,0.373-1.102,0.414-1.529,0.065c-0.397-0.323-0.777-0.663-1.142-1.019    C8.485,36.344,8.5,35.693,8.888,35.3c0.178-0.18,0.354-0.359,0.532-0.539c0.388-0.394,0.684-0.74,0.663-0.775    c-0.021-0.033,0.085-0.018,0.241,0.029c0.092,0.028,0.186,0.056,0.283,0.08c2.582,0.652,5.433,0.436,7.868-0.673    c1.657-0.755,3.491-2.189,5.353-2.911c0.515-0.2,0.638,0.016,0.248,0.407c-0.671,0.673-1.342,1.349-2.016,2.026    c-0.39,0.394-0.347,0.629,0.081,0.484c0.3-0.102,0.557-0.209,0.754-0.316c0.52-0.279,1.201-0.685,1.966-1.13    c0.478-0.276,1.135-0.787,1.466-1.141c0.331-0.354,1.04-0.529,1.52-0.256c0.367,0.209,0.73,0.486,1.09,0.85    c1.135,1.143,1.991,2.503,3.566,3.01c0.059,0.019,0.128,0.027,0.203,0.027c0.113-0.001,0.216-0.018,0.229-0.018    c0.009,0.001,0.017,0.002,0.026,0.001c3.256-0.236,4.941-2.288,5.838-5.31c0.029-0.099,0.055-0.204,0.078-0.313    c0.036-0.175,0.171-0.435,0.311-0.575C39.329,28.119,39.337,28.438,39.17,28.965z M10.448,25.881    c2.734-5.661,9.244-1.74,12.529,0.557c0.779,0.545,1.944,1.525,2.992,1.552c0.192,0.006,0.382-0.003,0.569-0.021    c0.312-0.03,0.525-0.046,0.48-0.001c-0.046,0.046,0.363,0.012,0.883-0.177c0.616-0.227,1.25-0.558,1.878-0.936    c0.385-0.216,0.765-0.439,1.137-0.663c1.447-0.865,4.31-3.981,5.885-0.647c1.037,2.193,0.08,6.229-2.311,7.464    c-0.49,0.253-1.371,0.162-1.812-0.171c-1.325-1.003-2.192-2.844-3.616-3.669c-1.575-0.913-2.754-0.701-4.454-0.16    c-2.78,0.884-4.993,3.019-7.724,3.948C11.571,34.764,7.926,31.103,10.448,25.881z M39.81,25.948    c-0.062,0.55-0.287,1.14-0.465,1.321c-0.178,0.184-0.304-0.118-0.354-0.668c-0.037-0.396-0.103-0.793-0.199-1.178    c-0.135-0.535-0.05-1.222,0.283-1.562c0.332-0.34,0.244-0.521-0.16-0.319c-0.405,0.202-0.931-0.004-1.343-0.371    c-0.529-0.475-1.221-0.726-2.098-0.605c-3.557,0.482-6.594,5.604-10.016,3.553c-0.104-0.062-0.201-0.122-0.299-0.185    c-0.164-0.103-0.004-0.484,0.357-0.854c0.361-0.37,0.625-0.689,0.587-0.712c-0.036-0.022-0.383,0.244-0.772,0.598    c-0.39,0.352-1.083,0.399-1.55,0.104c-0.172-0.107-0.343-0.216-0.511-0.32c-0.468-0.294-0.576-0.788-0.24-1.106    c0.336-0.317,0.561-0.594,0.504-0.613c-0.059-0.019-0.362,0.221-0.684,0.532c-0.319,0.312-0.96,0.329-1.442,0.062    c-0.194-0.108-0.389-0.212-0.585-0.312c-0.491-0.251-0.841-0.484-0.763-0.558c0.077-0.072-0.021-0.124-0.219-0.103    c-0.198,0.021-0.773-0.121-1.306-0.271c-1.02-0.287-2.13-0.429-3.42-0.359c-4.012,0.217-8.623,5.811-7.659,9.399    c0.142,0.533,0.07,1.218-0.334,1.595v0.001c-0.404,0.377-0.979,0.31-1.258-0.168c-0.284-0.486-0.547-0.984-0.787-1.495    c-0.235-0.5-0.091-1.235,0.294-1.634c0.426-0.439,0.852-0.879,1.278-1.316c0.385-0.396,0.638-0.981,0.583-1.312    C7.18,26.762,6.826,26.81,6.434,27.2c-0.488,0.484-0.971,0.966-1.449,1.44c-0.392,0.39-0.856,0.283-1.007-0.249    c-0.004-0.016-0.009-0.031-0.013-0.047c-0.149-0.532-0.096-1.119,0.09-1.304c0.112-0.112,0.224-0.225,0.337-0.335    c0.117-0.128,0.234-0.257,0.352-0.387c0.194-0.212,0.038-0.082-0.348,0.29C4.01,26.982,3.64,27.027,3.578,26.71    c-0.062-0.319,0.216-0.895,0.609-1.281c0.686-0.677,1.371-1.352,2.057-2.028c0.394-0.388,0.733-1.098,0.784-1.582    c0.051-0.483-0.197-0.553-0.582-0.155c-0.815,0.841-1.629,1.681-2.442,2.521c-0.385,0.397-0.733,0.338-0.755-0.134    c-0.021-0.472,0.291-1.177,0.676-1.573c1.053-1.084,2.074-2.133,3.051-3.136c0.386-0.396,0.824-1.147,1.012-1.666    c0.2-0.552,0.427-1.091,0.678-1.618c0.237-0.498,0.136-0.577-0.258-0.189c-1.432,1.407-2.879,2.833-4.337,4.271    c-0.394,0.388-0.673,0.341-0.605-0.103c0.04-0.269,0.087-0.535,0.142-0.803c0.107-0.52,0.243-1.023,0.403-1.512    c0.172-0.525,0.665-1.249,1.062-1.632c0.405-0.39,0.81-0.779,1.215-1.175c2.441-2.471,4.893-4.925,7.34-7.385    c0.39-0.392,0.667-0.686,0.619-0.656C14.2,6.9,14.531,6.668,14.961,6.321c1.42-1.142,3.86-3.318,5.139-4.351    c0.431-0.347,1.13-0.288,1.527,0.045c0.398,0.333,0.396,0.896-0.01,1.271c-1.252,1.148-2.467,2.267-3.637,3.343    c-0.406,0.374-0.557,0.585-0.334,0.473c0.134-0.066,0.27-0.134,0.407-0.195c0,0,1.455-0.75,3.037-1.944    c0.441-0.333,1.044-0.892,1.365-1.221c0.321-0.33,0.936-0.324,1.381,0.003c6.226,4.588,13.122,7.727,15.441,16.004    C39.88,21.891,40.03,23.974,39.81,25.948z" data-original="#000000" class="active-path" data-old_color=" rgb(0, 0, 0)" fill="#000000"/>
		<path d="M27.957,32.536c-2.098-0.451-4.461,0.916-5.828,2.414c-0.072,0.078-0.114,0.146-0.143,0.211    c-0.014,0.023-0.04,0.045-0.049,0.069c-0.365,1.084,0.892,1.538,1.759,1.108c0.937-0.464,1.839-1.885,3.016-1.744    c0.231,0.027,0.414,0.098,0.566,0.194c0.279,0.18,0.354,0.498,0.326,0.616c-0.027,0.12,0.05,0.168,0.112,0.104    c0.062-0.065,0.249,0.135,0.465,0.413c0.129,0.167,0.278,0.312,0.48,0.409c0.721,0.347,1.881,0.099,2.344-0.581    C31.989,34.311,28.897,32.737,27.957,32.536z" data-original="#000000" class="active-path" data-old_color=" rgb(0, 0, 0)" fill="#000000"/>
	</g>
</g></g> </svg>
